PathFileType	4	(X/Y/Z)	./resultDataOpenSim/trcMotMarkerGrf/sub06/qtm-02-01.trc
DataRate	CameraRate	NumFrames	NumMarkers	Units	OrigDataRate	OrigDataStartFrame	OrigNumFrames
250.000000	250.000000	10	24	m	250.000000	255	509
Frame#	Time	L.Toe.Tip			R.Toe.Tip			L.Ankle.Lat			R.Ankle.Lat			L.Ankle.Med			R.Ankle.Med			L.Heel			R.Heel			L.Knee.Lat			R.Knee.Lat			L.Knee.Med			R.Knee.Med			L.Thigh.Upper			R.Thigh.Upper			L.ASIS			R.ASIS			V.Sacral			L.Acromium			R.Acromium			C7			L.Elbow			R.Elbow			L.Wrist.Lat			R.Wrist.Lat
		X1	Y1	Z1	X2	Y2	Z2	X3	Y3	Z3	X4	Y4	Z4	X5	Y5	Z5	X6	Y6	Z6	X7	Y7	Z7	X8	Y8	Z8	X9	Y9	Z9	X10	Y10	Z10	X11	Y11	Z11	X12	Y12	Z12	X13	Y13	Z13	X14	Y14	Z14	X15	Y15	Z15	X16	Y16	Z16	X17	Y17	Z17	X18	Y18	Z18	X19	Y19	Z19	X20	Y20	Z20	X21	Y21	Z21	X22	Y22	Z22	X23	Y23	Z23	X24	Y24	Z24

255	1.016	0.106384	0.0088309126	-0.050844158	0.79472027	0.12883888	0.10997895	-0.0052010585	0.067314072	-0.07484793	0.66013028	0.09344824	0.12314094	0.0013628373	0.083226814	0.011808489	0.67420162	0.12915722	0.039588847	-0.082400648	0.059236082	-0.026859947	0.62759122	0.053444419	0.056513405	0.15712151	0.40323483	-0.097809053	0.5223163	0.45748899	0.13672574	0.15128143	0.40436686	0.023385094	0.50525244	0.43111876	0.006469094	0.25373685	0.7756701	-0.16276386	0.32396098	0.76819216	0.18058569	0.34495001	0.81794722	-0.13318182	0.3941134	0.82702364	0.10846769	0.18779304	0.8913997	0.0326378	0.31164523	1.3065557	-0.17731677	0.2986897	1.2890811	0.1851849	0.23048567	1.3349138	-0.00055252542	0.33655984	0.98182704	-0.25766956	0.15338559	1.0098661	0.22932511	0.5805565	0.93377112	-0.20481975	0.20070426	0.78594989	0.3006124
256	1.02	0.10641139	0.0088217378	-0.050904265	0.80314913	0.12931567	0.10896744	-0.0043168031	0.06834309	-0.07524791	0.66878031	0.092879809	0.12161993	0.00228339	0.084227744	0.011357055	0.6827964	0.12867618	0.038217116	-0.081735379	0.0611144	-0.027332764	0.63673507	0.052562725	0.054890341	0.16123583	0.40281969	-0.098110266	0.53003791	0.45647286	0.13609222	0.15603827	0.4037607	0.023123549	0.51223933	0.43018363	0.0056446256	0.2591942	0.77460533	-0.16230085	0.33203455	0.76663101	0.18056192	0.35087953	0.81670155	-0.13352971	0.40156065	0.82544435	0.10791843	0.19481001	0.89029505	0.033702591	0.31810151	1.3050336	-0.17713667	0.30537362	1.2875637	0.18559702	0.23714917	1.3336236	-0.00019422611	0.34486525	0.98039034	-0.25737861	0.15957712	1.0087651	0.22985675	0.58906168	0.9342302	-0.20377856	0.20552365	0.78470433	0.30136454
257	1.024	0.10644987	0.0088148069	-0.05096231	0.8110212	0.12924988	0.10781009	-0.0033770606	0.069439814	-0.075626865	0.67684902	0.092063901	0.12002603	0.0032841488	0.085321025	0.010957302	0.69075819	0.12786791	0.03679116	-0.081012779	0.063101988	-0.027788123	0.64515565	0.051524578	0.053218627	0.16549903	0.40238827	-0.098375366	0.53778817	0.45553624	0.13547228	0.16072379	0.40330125	0.022943984	0.51929888	0.42945382	0.0048824385	0.26475072	0.77354296	-0.16184173	0.34005851	0.76513179	0.18053882	0.35686816	0.81544875	-0.13388165	0.40903722	0.82387006	0.10737488	0.20185819	0.88920501	0.034648584	0.32457206	1.3035505	-0.17691854	0.31209486	1.2860731	0.18602612	0.24384234	1.3323514	0.00019880651	0.35317927	0.97900211	-0.25690449	0.1658858	1.0076489	0.23039309	0.59748305	0.93459092	-0.20277474	0.21055907	0.78347843	0.30211995
258	1.028	0.10650437	0.0088096555	-0.051012433	0.81835366	0.12865257	0.10648171	-0.0023793938	0.070603175	-0.075999259	0.68435012	0.090997097	0.11838827	0.004356897	0.086510733	0.010599683	0.69810765	0.12677939	0.035316909	-0.080205947	0.065214365	-0.028221114	0.65285216	0.050327085	0.051538997	0.16992588	0.40193664	-0.098600969	0.54549848	0.45464808	0.13485265	0.16537006	0.40297005	0.022810755	0.52644487	0.42891718	0.0042089628	0.27041208	0.77248114	-0.16138382	0.34806988	0.76374644	0.18056487	0.36292809	0.81421111	-0.13422989	0.41653773	0.82230202	0.10683995	0.20895121	0.88811384	0.035428433	0.33105769	1.3021118	-0.17666222	0.3188582	1.2846153	0.18647711	0.25056289	1.3311003	0.00063242616	0.36149981	0.97757846	-0.25635185	0.1723068	1.0065299	0.23094665	0.60581897	0.93485996	-0.20181814	0.21580596	0.7822777	0.30288154
259	1.032	0.10657725	0.0088067623	-0.051047924	0.82516128	0.12755805	0.10495903	-0.0013233182	0.071830732	-0.076372043	0.69129492	0.089684097	0.11673218	0.0054813609	0.087767028	0.010229957	0.70486891	0.125452	0.033786775	-0.079285594	0.067449977	-0.028629154	0.65982155	0.048964089	0.04989381	0.17452457	0.40146466	-0.098792605	0.55311437	0.45377304	0.13421284	0.17011218	0.40267468	0.022676428	0.53367704	0.42857684	0.003640432	0.27618532	0.77142573	-0.16093283	0.35608763	0.76251146	0.18067265	0.36907349	0.81299912	-0.13456961	0.42406275	0.82075353	0.10631563	0.21617186	0.88701123	0.036099155	0.33755943	1.3007204	-0.17636538	0.3256669	1.2831981	0.18695751	0.25731403	1.3298767	0.0011119294	0.3698241	0.97612308	-0.25582493	0.17883829	1.0054183	0.23152114	0.61406779	0.935036	-0.20089844	0.22121842	0.78109623	0.30364812
260	1.036	0.10666795	0.0088083471	-0.051070429	0.83145744	0.12600452	0.10322532	-0.00020907812	0.073120302	-0.076744952	0.69769305	0.088138264	0.11507969	0.006663278	0.089064277	0.0098093794	0.7110638	0.12389962	0.032196566	-0.078234425	0.069792202	-0.029042252	0.66606727	0.047424397	0.048326113	0.17929711	0.40097406	-0.098966018	0.56061515	0.45289155	0.13353771	0.17507135	0.40232411	0.022513814	0.54098409	0.42844109	0.0031759735	0.28207765	0.770382	-0.16049665	0.36412965	0.76144702	0.18087878	0.37531056	0.81181166	-0.13489689	0.43162108	0.81924773	0.10580099	0.22362528	0.88591366	0.036822638	0.34408023	1.2993809	-0.17602164	0.33252069	1.28183	0.1874706	0.26410136	1.3286846	0.0016416912	0.37811763	0.97470989	-0.25531554	0.18547928	1.0043193	0.23211203	0.62222906	0.93511324	-0.19999516	0.22676106	0.77992783	0.30441777
261	1.04	0.10677602	0.0088178811	-0.051091069	0.83724918	0.12402832	0.10127186	0.00097164602	0.074469639	-0.077114133	0.70355541	0.086378582	0.11344876	0.00795312	0.090411151	0.0093535127	0.71671421	0.12212414	0.030564476	-0.077058	0.072218644	-0.029517769	0.67160461	0.045700127	0.046869351	0.18424318	0.40046719	-0.099137172	0.56800854	0.45200564	0.13282794	0.1802835	0.40188404	0.02231762	0.54834927	0.42850464	0.0027977719	0.28809677	0.76934697	-0.16007485	0.37218688	0.76054373	0.18116355	0.38163749	0.8106497	-0.1352086	0.43922435	0.8178089	0.10529731	0.2313419	0.8848624	0.037713895	0.3506242	1.2980989	-0.1756242	0.33942255	1.2805194	0.18801649	0.27092291	1.3275222	0.0022227338	0.38632867	0.97340844	-0.2546513	0.19222592	1.0032356	0.23271309	0.63030249	0.93508979	-0.19909406	0.23243806	0.77877535	0.30519127
262	1.044	0.10690261	0.0088366504	-0.051120816	0.84254233	0.12166332	0.09910001	0.0022507637	0.07587299	-0.077480639	0.70889773	0.084428039	0.11184977	0.0094092406	0.091835026	0.0088984876	0.72183932	0.12012609	0.028922864	-0.075776361	0.074720678	-0.030090209	0.67645839	0.043796299	0.045540879	0.18936763	0.39994339	-0.099308237	0.57530524	0.4511291	0.13210191	0.18571383	0.40137071	0.022093928	0.55575627	0.42873671	0.0024758469	0.29424842	0.7683147	-0.15965317	0.38021009	0.75976341	0.18147114	0.38804976	0.80952147	-0.1354996	0.44687999	0.81645707	0.10481171	0.23924436	0.88388665	0.038709292	0.35719475	1.2968801	-0.1751709	0.34637737	1.279273	0.18859433	0.27777156	1.3263854	0.0028529209	0.39444837	0.97222468	-0.25361822	0.19907078	1.0021709	0.23331913	0.63828534	0.93497021	-0.19819591	0.2382678	0.77764719	0.30596854
263	1.048	0.10704392	0.0088609362	-0.05116694	0.8473512	0.11893705	0.096724795	0.0036702695	0.07732396	-0.077862011	0.71373865	0.082310473	0.11028582	0.01104844	0.093348815	0.008454408	0.72644978	0.11790745	0.027291699	-0.074396818	0.077317628	-0.030737837	0.68065931	0.041728136	0.044340681	0.19467827	0.39939726	-0.099469308	0.58251157	0.45027833	0.13138205	0.19131379	0.40080877	0.021851449	0.56319541	0.42908328	0.0021803957	0.30053283	0.76728376	-0.15921428	0.3881691	0.75907415	0.18175678	0.39454636	0.80843481	-0.13576345	0.45458929	0.81520701	0.10435363	0.24719103	0.88297997	0.039633329	0.3637927	1.2957296	-0.17466464	0.35338637	1.278094	0.18920191	0.28464721	1.3252727	0.0035307866	0.40250162	0.97111296	-0.25221156	0.20601968	1.0011305	0.23392133	0.6461723	0.93476099	-0.19731362	0.24425813	0.77655068	0.30674461
264	1.052	0.1071858	0.00888326	-0.051236921	0.85169832	0.11587402	0.094176764	0.005244498	0.078822944	-0.078289684	0.71810045	0.080041943	0.10875688	0.012846262	0.09494255	0.0080034223	0.73054147	0.1154726	0.025670224	-0.072896552	0.08004131	-0.03140789	0.68424996	0.039506854	0.043254388	0.20017723	0.39882135	-0.099618492	0.58965837	0.44946654	0.13067522	0.19706206	0.40020071	0.021596756	0.57066394	0.42947879	0.0018900302	0.30694551	0.76625532	-0.1587606	0.39613712	0.75849405	0.18204199	0.40113044	0.8073945	-0.1359971	0.46235172	0.81407086	0.10393272	0.25505537	0.88211725	0.040383785	0.37041686	1.2946527	-0.17410795	0.36044493	1.2769818	0.18983499	0.29155554	1.3241864	0.0042579098	0.41046779	0.97004427	-0.25071862	0.21311147	1.0001202	0.2345042	0.65395801	0.93446639	-0.19646394	0.25040342	0.77549134	0.30751387
